# xmcd
#
# Track frame offsets:
# 150
# 34944
# 61908
# 95748
# 116229
# 129630
#
# Disc length: 2314 seconds
#
# Revision: 0
# Processed by: cddbd v1.4PL0 Copyright (c) Steve Scherf et al.
# Submitted via: Audion 2.5.0 (http://www.panic.com/audion/)
#
DISCID=55090806
DTITLE=Perplexus - dance
DYEAR=1900
DGENRE=
TTITLE0=a
TTITLE1=b
TTITLE2=c
TTITLE3=d
TTITLE4=e
TTITLE5=f
EXTD=
EXTT0=
EXTT1=
EXTT2=
EXTT3=
EXTT4=
EXTT5=
PLAYORDER=
